<svg xmlns="http://www.w3.org/2000/svg" version="1.1" xmlns:xlink="http://www.w3.org/1999/xlink" xmlns:svgjs="http://svgjs.dev/svgjs" width="1000" height="338" viewBox="0 0 1000 338"><g transform="matrix(1,0,0,1,-0.6060606060606233,-0.22568480844572036)"><svg viewBox="0 0 396 134" data-background-color="#444444" preserveAspectRatio="xMidYMid meet" height="338" width="1000" xmlns="http://www.w3.org/2000/svg" xmlns:xlink="http://www.w3.org/1999/xlink"><g id="tight-bounds" transform="matrix(1,0,0,1,0.2400000000000091,0.08947267553764959)"><svg viewBox="0 0 395.52 133.8210484705671" height="133.8210484705671" width="395.52"><g><svg viewBox="0 0 695.5043818386318 235.3183798379838" height="133.8210484705671" width="395.52"><g><svg viewBox="0 0 395.52 235.3183798379838" height="235.3183798379838" width="395.52"><g id="textblocktransform"><svg viewBox="0 0 395.52 235.3183798379838" height="235.3183798379838" width="395.52" id="textblock"><g><svg viewBox="0 0 395.52 235.3183798379838" height="235.3183798379838" width="395.52"><g transform="matrix(1,0,0,1,0,0)"><svg width="395.52" viewBox="-0.9500000476837158 -32.45000076293945 55.54999923706055 33.04999923706055" height="235.3183798379838" data-palette-color="#ffffff"><path d="M7.2 0.6L7.5-1.7Q9.3-2.05 10.1-2.6 10.9-3.15 11.15-4.1 11.4-5.05 11.4-7.1L11.4-7.1 11.4-9.3Q11.4-10.85 11.1-12.03 10.8-13.2 9.95-14.95L9.95-14.95 5.45-24.1Q4.15-26.75 3.6-27.68 3.05-28.6 2.05-29.15 1.05-29.7-0.85-29.85L-0.85-29.85-0.95-30.05-0.65-32Q-0.1-31.95 1.45-31.9 3-31.85 4.85-31.85L4.85-31.85Q6.6-31.85 8.93-32.02 11.25-32.2 11.95-32.25L11.95-32.25 12.1-31.9 11.95-30.15Q9.7-29.95 8.93-29.58 8.15-29.2 8.15-28.35L8.15-28.35Q8.15-27.7 9.4-24.8 10.65-21.9 11.98-19.1 13.3-16.3 13.75-15.45L13.75-15.45 14-15.45 19.7-26.05Q20.5-27.5 20.5-28.55L20.5-28.55Q20.5-29.85 17.35-30.05L17.35-30.05 17.25-30.25 17.55-32.2Q18.15-32.15 20.05-32 21.95-31.85 23.1-31.85L23.1-31.85Q24.3-31.85 25.78-31.93 27.25-32 27.7-32.05L27.7-32.05 27.9-31.7 27.6-29.85Q26-29.55 25.1-29.03 24.2-28.5 23.53-27.53 22.85-26.55 21.55-24.25L21.55-24.25Q21.25-23.65 21.05-23.35L21.05-23.35 16.05-14.55Q15.4-13.4 15.23-11.95 15.05-10.5 14.95-6.7L14.95-6.7 14.95-5.6Q14.9-3.65 15.38-2.93 15.85-2.2 17.15-2.2L17.15-2.2Q17.95-2.2 18.65-2.25 19.35-2.3 19.6-2.35L19.6-2.35 19.7-2.15 19.25 0.15Q18.55 0.1 16.68 0.05 14.8 0 12.9 0L12.9 0Q11.35 0 9.55 0.25 7.75 0.5 7.2 0.6L7.2 0.6ZM41.5 0.5L41.35 0.15 41.55-1.8Q44.1-2 45.05-2.4 46-2.8 46-3.7L46-3.7Q46-4.7 45.55-6.1L45.55-6.1 43.9-11.55Q42.7-11.6 38.7-11.6L38.7-11.6Q36.3-11.6 33.25-11.2L33.25-11.2 31.4-6Q30.95-4.65 30.95-4.05L30.95-4.05Q30.95-2.95 31.65-2.48 32.35-2 33.95-2L33.95-2 36.8-2 36.9-1.8 36.6 0.35Q36 0.3 33.85 0.15 31.7 0 29.65 0L29.65 0Q27.8 0 26.22 0.05 24.65 0.1 24.15 0.15L24.15 0.15 24.55-2.2Q25.95-2.35 26.8-3.18 27.65-4 28.45-6.05L28.45-6.05 38.2-31.6 41.35-32.45 41.75-32.45Q42.05-31.25 43.27-26.9 44.5-22.55 46.27-16.6 48.05-10.65 49.7-5.65L49.7-5.65Q50.3-3.8 51.3-3.05 52.3-2.3 54.5-2.1L54.5-2.1 54.6-1.9 54.25 0.15Q53.65 0.15 52.07 0.08 50.5 0 48.95 0L48.95 0Q46.55 0 44.32 0.2 42.1 0.4 41.5 0.5L41.5 0.5ZM34.15-13.65L38.55-13.65Q40.35-13.65 43.2-13.9L43.2-13.9 39.25-27 38.9-27 34.15-13.65Z" opacity="1" transform="matrix(1,0,0,1,0,0)" fill="#ffffff" class="wordmark-text-0" data-fill-palette-color="primary" id="text-0"></path></svg></g></svg></g></svg></g></svg></g><g transform="matrix(1,0,0,1,451.07302183863186,17.034384722595206)"><svg viewBox="0 0 244.43135999999998 201.2496103927934" height="201.2496103927934" width="244.43135999999998"><g><svg xmlns="http://www.w3.org/2000/svg" xmlns:xlink="http://www.w3.org/1999/xlink" version="1.1" x="8" y="0" viewBox="6.300000190734863 11.5 87.39999389648438 77" style="enable-background:new 0 0 100 100;" xml:space="preserve" height="201.2496103927934" width="228.43135999999998" class="icon-icon-0" data-fill-palette-color="accent" id="icon-0"><path d="M72.3 12.3L72.3 12.3 72.3 12.3l-0.4-0.8H28.2L6.3 50l21.8 38.5h43.7L93.7 50 72.3 12.3zM33.3 25.3L9.9 47.7l18.6-32.8L33.3 25.3zM70.7 14.8l6.4 35.7L36.9 25.8 70.7 14.8zM35.5 27.3l41 25.2-41 23.3V27.3zM77 54.5l-7.2 30.8-32.6-8.1L77 54.5zM33.5 75L9.9 50.5l23.6-22.7V75zM33.2 77.6l-4.6 7.7L11.5 55.1 33.2 77.6zM35 78.6l31.4 7.9H30.2L35 78.6zM79.3 53.3l11.6-2.5L72.1 84 79.3 53.3zM90.7 48.9l-11.4 2.5-5.9-33.1L90.7 48.9zM35 24.3l-5-10.8h38.2L35 24.3z" fill="#00d1cd" data-fill-palette-color="accent"></path></svg></g></svg></g></svg></g><defs></defs></svg><rect width="395.52" height="133.8210484705671" fill="none" stroke="none" visibility="hidden"></rect></g></svg></g></svg>